<svg width="528" height="265" viewBox="0 0 528 265" fill="none" xmlns="http://www.w3.org/2000/svg">
<path d="M46.7668 0.187897C18.6944 0.676963 -4.1499 24.0397 1.61441 51.5184C12.3636 102.76 37.9557 150.136 75.7347 187.444C125.667 236.752 192.919 264.553 263.093 264.893C333.267 265.234 400.786 238.088 451.194 189.267C489.334 152.328 515.384 105.202 526.631 54.0674C532.662 26.6461 510.045 3.06264 481.979 2.301V2.301C453.912 1.53937 431.267 24.2061 422.119 50.7506C413.647 75.3301 399.47 97.8176 380.458 116.231C349.138 146.565 307.187 163.431 263.586 163.22C219.986 163.008 178.2 145.735 147.177 115.098C128.344 96.5012 114.386 73.8771 106.154 49.2165C97.2635 22.5844 74.8393 -0.301168 46.7668 0.187897V0.187897Z" fill="#23B882"/>
</svg>
