<svg width="2054" height="2990" viewBox="0 0 2054 2990" fill="none" xmlns="http://www.w3.org/2000/svg">
<path d="M807.86 2876.67C819.76 2854.68 828.35 2830.76 825.276 2804.26C823.306 2787.11 803.684 2768.42 787.923 2769.95C764.518 2772.21 742.61 2790.65 736.463 2815.06C731.577 2834.47 722.357 2851.54 710.143 2866.36C701.316 2877.08 692.963 2887.71 680.197 2892.86H804.551C802.029 2890.53 802.738 2885.94 807.703 2876.75L807.86 2876.67Z" fill="#23B882"/>
<path d="M459.59 2985.48L384 2892H499.637L581.735 2933.21H606.765L682.354 2892H803.84L707.384 2990L459.59 2985.48Z" fill="#23B882"/>
<path d="M418.625 2879.85C404.48 2875.4 392.803 2876.94 389.266 2893.3H502.918C501.931 2892.73 500.944 2892 499.957 2891.19C486.882 2885.2 466.816 2882.04 448.97 2882.36C438.855 2882.53 428.658 2883.09 418.625 2879.85Z" fill="#23B882"/>
<path d="M428.329 2873.53C433.921 2875.07 440.335 2875.8 445.763 2874.18C468.049 2867.54 485.319 2874.91 500.039 2891.11C482.276 2869.89 463.691 2848.67 456.454 2821.69C446.092 2782.97 424.875 2750.89 399.957 2720.27C361.141 2672.89 307.276 2654.99 250.121 2641.78C231.5 2640 226.5 2640 212.539 2651.18C203 2664 199.875 2680.86 206.5 2696C210 2704 210.5 2704.5 219.5 2714C234.5 2725.5 237.5 2724.5 241.5 2726C257.5 2732 264.5 2732 288.526 2745.79C324.628 2769.77 352.095 2797.8 364.102 2839.84C368.378 2854.98 373.641 2869.97 381.618 2883.82C395.023 2872.72 410.319 2868.59 428.246 2873.53H428.329Z" fill="#23B882"/>
<path d="M388.938 2895C389.02 2894.35 389.266 2893.87 389.349 2893.22H387.704C388.115 2893.78 388.526 2894.43 388.938 2895Z" fill="#23B882"/>
<path d="M389.349 2893.22C392.885 2876.86 404.563 2875.32 418.707 2879.77C428.74 2882.93 438.938 2882.44 449.053 2882.28C466.898 2881.96 486.882 2885.12 500.039 2891.11C485.401 2874.91 468.049 2867.54 445.763 2874.18C440.336 2875.8 433.921 2875.07 428.329 2873.53C410.319 2868.59 395.105 2872.72 381.701 2883.82C383.5 2886.5 383.5 2889 384.5 2893L389.349 2893.22Z" fill="#23B882"/>
<path d="M1453 2893C1453 2889.32 1451.63 2885.68 1448.97 2882.28C1446.3 2878.89 1442.4 2875.8 1437.48 2873.2C1432.56 2870.6 1426.71 2868.54 1420.28 2867.13C1413.85 2865.72 1406.96 2865 1400 2865C1393.04 2865 1386.15 2865.72 1379.72 2867.13C1373.29 2868.54 1367.44 2870.6 1362.52 2873.2C1357.6 2875.8 1353.7 2878.89 1351.03 2882.28C1348.37 2885.68 1347 2889.32 1347 2893L1400 2893L1453 2893Z" fill="#127758"/>
<path d="M2042.35 2348.4C2011.4 2350.11 1983.03 2362.44 1957 2377.5C1907.36 2406.29 1872.41 2446.71 1852.56 2502.11C1842.08 2531.22 1824.42 2557.05 1798.08 2577.25C1771.34 2597.78 1740.46 2605.03 1710.29 2615.64C1678.5 2625.5 1667.64 2651.37 1673.5 2671.5C1680.82 2693.28 1694 2703.5 1730.69 2700.85C1820.2 2684.23 1887.81 2637.73 1927.29 2554.55C1941.75 2524.12 1949 2496 1978 2469.5C1997.08 2452.07 2024.53 2437.82 2054 2441.02V2348.49C2045 2348 2048.22 2348.01 2042.27 2348.4H2042.35Z" fill="#23B882"/>
<path d="M5.64595e-05 1854.5C6.50756e-05 1953.06 24.0423 2050.65 70.7541 2141.7C117.466 2232.76 185.932 2315.49 272.244 2385.18C358.556 2454.87 461.024 2510.16 573.796 2547.87C686.568 2585.59 807.436 2605 929.5 2605C1051.56 2605 1172.43 2585.59 1285.2 2547.87C1397.98 2510.16 1500.44 2454.87 1586.76 2385.18C1673.07 2315.49 1741.53 2232.76 1788.25 2141.7C1834.96 2050.65 1859 1953.06 1859 1854.5L929.5 1854.5L5.64595e-05 1854.5Z" fill="#127758"/>
<path d="M982.767 587.188C954.694 587.677 931.85 611.04 937.614 638.518C948.364 689.76 973.956 737.136 1011.73 774.444C1061.67 823.752 1128.92 851.553 1199.09 851.893C1269.27 852.234 1336.79 825.088 1387.19 776.267C1425.33 739.328 1451.38 692.202 1462.63 641.067C1468.66 613.646 1446.05 590.063 1417.98 589.301V589.301C1389.91 588.539 1367.27 611.206 1358.12 637.751C1349.65 662.33 1335.47 684.818 1316.46 703.231C1285.14 733.565 1243.19 750.431 1199.59 750.22C1155.99 750.008 1114.2 732.735 1083.18 702.098C1064.34 683.501 1050.39 660.877 1042.15 636.216C1033.26 609.584 1010.84 586.699 982.767 587.188V587.188Z" fill="#23B882"/>
<circle r="69.5" transform="matrix(1 0 0 -1 1857.5 643.5)" fill="#127758"/>
<path d="M1259.97 70.4748C1259.97 79.6017 1261.77 88.6392 1265.27 97.0713C1268.76 105.503 1273.88 113.165 1280.33 119.619C1286.78 126.072 1294.45 131.192 1302.88 134.684C1311.31 138.177 1320.35 139.975 1329.47 139.975C1338.6 139.975 1347.64 138.177 1356.07 134.684C1364.5 131.192 1372.17 126.072 1378.62 119.619C1385.07 113.165 1390.19 105.503 1393.68 97.0713C1397.18 88.6392 1398.97 79.6017 1398.97 70.4748L1329.47 70.4748L1259.97 70.4748Z" fill="#127758"/>
</svg>
